<svg id="icon" width="24" height="24" viewBox="0 0 24 24" xmlns="http://www.w3.org/2000/svg">
<path d="M14.8501 18.7874H9.1501C8.7001 18.7874 8.2876 19.1624 8.2876 19.6499C8.2876 20.1374 8.6626 20.5124 9.1501 20.5124H14.8876C15.3376 20.5124 15.7501 20.1374 15.7501 19.6499C15.7501 19.1624 15.3376 18.7874 14.8501 18.7874Z"/>
<path d="M9.03731 12.8625H14.9623C15.8248 12.8625 16.5748 12.15 16.5748 11.25V9.03755C16.5748 8.17505 15.8623 7.42505 14.9623 7.42505H9.03731C8.17481 7.42505 7.4248 8.13755 7.4248 9.03755V11.25C7.4623 12.1125 8.17481 12.8625 9.03731 12.8625ZM9.1498 9.15005H14.8873V11.175H9.1498V9.15005Z"/>
<path d="M6.375 2.36245H19.65C20.1 2.36245 20.5125 1.98745 20.5125 1.49995C20.5125 1.01245 20.1375 0.637451 19.65 0.637451H6.375C4.875 0.637451 3.675 1.79995 3.5625 3.26245C3.5625 3.29995 3.5625 3.33745 3.5625 3.37495V21C3.5625 22.275 4.65 23.2875 6 23.2875H18.3375C19.3875 23.2875 20.25 22.425 20.25 21.375V6.37495C20.25 5.32495 19.3875 4.46245 18.3375 4.46245H6.2625C5.625 4.46245 5.25 4.08745 5.25 3.48745C5.2125 2.84995 5.7375 2.36245 6.375 2.36245ZM6.225 6.14995C6.225 6.14995 6.2625 6.14995 6.225 6.14995C6.2625 6.14995 6.2625 6.14995 6.225 6.14995H18.3C18.4125 6.14995 18.525 6.26245 18.525 6.37495V21.45C18.525 21.5625 18.4125 21.6749 18.3 21.6749H5.9625C5.55 21.6749 5.2125 21.4125 5.2125 21.075V5.99995C5.5125 6.11245 5.85 6.14995 6.225 6.14995Z"/>
</svg>
