<svg width="24" height="24" viewBox="0 0 24 24" fill="none" xmlns="http://www.w3.org/2000/svg">
<g clip-path="url(#clip0_17_3974)">
<path d="M4.4998 9.78745V5.06245C4.4998 3.56245 5.69981 2.36245 7.16231 2.36245H8.32481C8.77481 2.36245 9.18731 1.98745 9.18731 1.49995C9.18731 1.01245 8.81231 0.637451 8.32481 0.637451H7.16231C4.76231 0.674951 2.8123 2.62495 2.8123 5.06245V9.48745L1.0873 11.4375C0.787305 11.7375 0.787305 12.225 1.0873 12.5625L2.8123 14.55V18.9375C2.8123 21.375 4.76231 23.325 7.16231 23.325H8.32481C8.77481 23.325 9.18731 22.95 9.18731 22.4625C9.18731 21.975 8.81231 21.6 8.32481 21.6H7.16231C5.69981 21.6 4.4998 20.4 4.4998 18.9V14.2125C4.4998 14.025 4.4248 13.8 4.2748 13.65L2.8498 12L4.3123 10.35C4.4248 10.2 4.4998 10.0125 4.4998 9.78745Z" fill="white"/>
<path d="M22.9125 11.4375L21.1875 9.48755V5.06255C21.1875 2.62505 19.2375 0.675049 16.8375 0.675049H15.675C15.225 0.675049 14.8125 1.05005 14.8125 1.53755C14.8125 2.02505 15.1875 2.40005 15.675 2.40005H16.8375C18.3 2.40005 19.5 3.60005 19.5 5.10005V9.82505C19.5 10.0125 19.575 10.2375 19.725 10.3875L21.1875 12.0375L19.725 13.725C19.575 13.875 19.5 14.0625 19.5 14.2875V19.0126C19.5 20.5126 18.3 21.7125 16.8375 21.7125H15.675C15.225 21.7125 14.8125 22.0875 14.8125 22.5751C14.8125 23.0625 15.1875 23.4375 15.675 23.4375H16.8375C19.2375 23.4375 21.1875 21.45 21.1875 19.05V14.55L22.9125 12.5625C23.2125 12.225 23.2125 11.775 22.9125 11.4375Z" fill="white"/>
</g>
<defs>
<clipPath id="clip0_17_3974">
<rect width="24" height="24" fill="white"/>
</clipPath>
</defs>
</svg>
