<svg width="18" height="24" viewBox="0 0 18 24" id="icon" xmlns="http://www.w3.org/2000/svg">
<g id="Group">
<path id="Vector" d="M15.2623 18.6001C15.1498 18.3001 14.8873 18.0751 14.5873 18.0376L13.0498 17.8126L12.3373 16.3876C12.1873 16.0876 11.8873 15.9001 11.5873 15.9001C11.2873 15.9001 10.9873 16.0876 10.8373 16.3876L10.1248 17.8126L8.54984 18.0001C8.24984 18.0376 7.98734 18.2626 7.87484 18.5626C7.76234 18.8626 7.83734 19.2001 8.09984 19.4251L9.22484 20.5501L8.96234 22.1251C8.92484 22.4251 9.03734 22.7626 9.29984 22.9501C9.44984 23.0626 9.63734 23.1001 9.78734 23.1001C9.93734 23.1001 10.0498 23.0626 10.1998 22.9876L11.5873 22.2376L12.9748 22.9876C13.2748 23.1376 13.6123 23.1001 13.8748 22.9126C14.1373 22.7251 14.2498 22.3876 14.2123 22.0876L13.9498 20.5126L15.0748 19.3876C15.2623 19.2376 15.3373 18.9001 15.2623 18.6001ZM12.4123 19.6876C12.2248 19.8751 12.1123 20.1751 12.1873 20.4376L12.2248 20.7751L11.9623 20.6251C11.8498 20.5501 11.6998 20.5126 11.5498 20.5126C11.3998 20.5126 11.2873 20.5501 11.1373 20.6251L10.8748 20.7751L10.9123 20.4376C10.9498 20.1751 10.8748 19.8751 10.6873 19.6876L10.4248 19.4251L10.7623 19.3876C11.0248 19.3501 11.2873 19.1626 11.3998 18.9376L11.5498 18.6751L11.6998 18.9376C11.8123 19.2001 12.0748 19.3501 12.3373 19.3876L12.6748 19.4251L12.4123 19.6876Z"/>
<path id="Vector_2" d="M16.9499 4.31255L13.3874 1.27505C12.9374 0.862549 12.3374 0.675049 11.7374 0.675049H2.6999C1.2749 0.675049 0.149902 1.83755 0.149902 3.22505V20.8125C0.149902 22.2375 1.3124 23.3625 2.6999 23.3625H7.3499C7.7999 23.3625 8.2124 22.9875 8.2124 22.5C8.2124 22.0125 7.8374 21.6376 7.3499 21.6376H2.6999C2.2124 21.6376 1.8374 21.2626 1.8374 20.775V3.22505C1.8374 2.73755 2.2124 2.36255 2.6999 2.36255H11.7374C11.9249 2.36255 12.1499 2.43755 12.2999 2.58755L15.8624 5.62505C16.0499 5.77505 16.1624 6.03755 16.1624 6.30005V21.5625C16.1624 21.6375 16.0874 21.7125 16.0124 21.7125C15.5624 21.7125 15.1499 22.0875 15.1499 22.5751C15.1499 23.0625 15.5249 23.4375 16.0124 23.4375C17.0249 23.4375 17.8499 22.6125 17.8499 21.6V6.26255C17.8499 5.51255 17.5124 4.80005 16.9499 4.31255Z"/>
<path id="Vector_3" d="M4.3874 6.90005H9.3749C9.8249 6.90005 10.2374 6.52505 10.2374 6.03755C10.2374 5.55005 9.8624 5.17505 9.3749 5.17505H4.3874C3.9374 5.17505 3.5249 5.55005 3.5249 6.03755C3.5249 6.52505 3.9374 6.90005 4.3874 6.90005Z"/>
<path id="Vector_4" d="M4.3874 10.8375H12.9374C13.3874 10.8375 13.7999 10.4625 13.7999 9.97505C13.7999 9.48755 13.4249 9.11255 12.9374 9.11255H4.3874C3.9374 9.11255 3.5249 9.48755 3.5249 9.97505C3.5249 10.4625 3.9374 10.8375 4.3874 10.8375Z"/>
</g>
</svg>
