<svg width="24" height="20" viewBox="0 0 24 20" fill="none" xmlns="http://www.w3.org/2000/svg">
<g id="Group">
<path id="Vector" d="M20.6253 0.175049H3.37529C1.87529 0.175049 0.675293 1.37505 0.675293 2.87505V10.2625C0.675293 11.725 1.83779 12.8875 3.30029 12.9625C3.71279 13.975 4.76279 14.725 6.00029 14.725C7.20029 14.725 8.25029 14.0125 8.70029 12.9625H15.4503C15.8628 13.975 16.9128 14.725 18.1503 14.725C19.3503 14.725 20.4003 13.975 20.8503 12.9625C22.3128 12.925 23.4753 11.725 23.4753 10.2625V2.87505C23.3628 1.37505 22.1253 0.175049 20.6253 0.175049ZM5.96279 13.0375C5.28779 13.0375 4.76279 12.55 4.76279 11.95C4.76279 11.35 5.28779 10.8625 5.96279 10.8625C6.63779 10.8625 7.16279 11.35 7.16279 11.95C7.16279 12.5125 6.60029 13.0375 5.96279 13.0375ZM18.0378 13.0375C17.3628 13.0375 16.8378 12.55 16.8378 11.95C16.8378 11.35 17.3628 10.8625 18.0378 10.8625C18.7128 10.8625 19.2378 11.35 19.2378 11.95C19.2378 12.5125 18.7128 13.0375 18.0378 13.0375ZM21.6753 10.2625C21.6753 10.75 21.3378 11.1625 20.8878 11.2375C20.5878 10.0375 19.4253 9.13755 18.0753 9.13755C16.7253 9.13755 15.5628 10.0375 15.2628 11.275H8.73779C8.43779 10.0375 7.27529 9.13755 5.92529 9.13755C4.57529 9.13755 3.45029 10.0375 3.11279 11.2375C2.66279 11.125 2.28779 10.75 2.28779 10.2625V2.87505C2.28779 2.31255 2.73779 1.86255 3.30029 1.86255H20.5503C21.1128 1.86255 21.5628 2.31255 21.5628 2.87505V10.2625H21.6753Z" fill="white"/>
<path id="Vector_2" d="M5.96269 15.7375C3.86269 15.7375 1.87519 16.7875 0.787694 18.5125C0.525194 18.8875 0.637694 19.4125 1.05019 19.675C1.46269 19.9375 1.95019 19.825 2.21269 19.4125C3.00019 18.175 4.42519 17.425 5.96269 17.425C7.50019 17.425 8.92519 18.175 9.71269 19.4125C9.86269 19.675 10.1627 19.7875 10.4252 19.7875C10.5752 19.7875 10.7252 19.75 10.8752 19.675C11.2502 19.4125 11.4002 18.8875 11.1377 18.5125C10.0127 16.7875 8.06269 15.7375 5.96269 15.7375Z" fill="white"/>
<path id="Vector_3" d="M18.0379 15.7375C15.9379 15.7375 13.9504 16.7875 12.8629 18.5125C12.6004 18.925 12.7129 19.4125 13.1254 19.675C13.2754 19.75 13.4254 19.7875 13.5754 19.7875C13.8379 19.7875 14.1379 19.6375 14.2879 19.4125C15.0754 18.175 16.5004 17.425 18.0379 17.425C19.5754 17.425 21.0004 18.175 21.7879 19.4125C22.0504 19.7875 22.5754 19.9375 22.9504 19.675C23.3254 19.4125 23.4754 18.8875 23.2129 18.5125C22.1254 16.7875 20.1754 15.7375 18.0379 15.7375Z" fill="white"/>
</g>
</svg>
