<svg width="12" height="12" viewBox="0 0 12 12" fill="none" xmlns="http://www.w3.org/2000/svg">
<g clip-path="url(#clip0_15_557)">
<path d="M6.00002 0.337402C2.86877 0.337402 0.337524 2.86865 0.337524 5.9999C0.337524 9.13115 2.86877 11.6812 6.00002 11.6812C9.13128 11.6812 11.6813 9.13115 11.6813 5.9999C11.6813 2.86865 9.13128 0.337402 6.00002 0.337402ZM6.00002 10.8374C3.33752 10.8374 1.18127 8.6624 1.18127 5.9999C1.18127 3.3374 3.33752 1.18115 6.00002 1.18115C8.66252 1.18115 10.8375 3.35615 10.8375 6.01865C10.8375 8.6624 8.66252 10.8374 6.00002 10.8374Z" fill="white"/>
<path d="M7.72507 4.2562C7.55632 4.08745 7.29382 4.08745 7.12507 4.2562L6.00007 5.39995L4.85632 4.2562C4.68757 4.08745 4.42507 4.08745 4.25632 4.2562C4.08757 4.42495 4.08757 4.68745 4.25632 4.8562L5.40007 5.99995L4.25632 7.1437C4.08757 7.31245 4.08757 7.57495 4.25632 7.7437C4.33132 7.8187 4.44382 7.87495 4.55632 7.87495C4.66882 7.87495 4.78132 7.83745 4.85632 7.7437L6.00007 6.59995L7.14382 7.7437C7.21882 7.8187 7.33132 7.87495 7.44382 7.87495C7.55632 7.87495 7.66882 7.83745 7.74382 7.7437C7.91257 7.57495 7.91257 7.31245 7.74382 7.1437L6.60007 5.99995L7.74382 4.8562C7.89382 4.68745 7.89382 4.42495 7.72507 4.2562Z" fill="white"/>
</g>
<defs>
<clipPath id="clip0_15_557">
<rect width="12" height="12" fill="white"/>
</clipPath>
</defs>
</svg>
