<svg width="24" height="24" viewBox="0 0 24 24" fill="none" xmlns="http://www.w3.org/2000/svg">
<g clip-path="url(#clip0_17_3993)">
<path d="M20.9998 0.675049H2.9998C1.7248 0.675049 0.674805 1.72505 0.674805 3.00005V21C0.674805 22.275 1.7248 23.3625 3.0373 23.3625H21.0373C22.3123 23.3625 23.3998 22.3125 23.3998 21V3.00005C23.3623 1.72505 22.2748 0.675049 20.9998 0.675049ZM21.6748 3.00005V11.175H13.0498V2.36255H20.9998C21.3748 2.36255 21.6748 2.62505 21.6748 3.00005ZM2.9998 2.36255H11.3248V11.175H2.3248V3.00005C2.3623 2.62505 2.6248 2.36255 2.9998 2.36255ZM2.3623 21V12.8625H11.3623V21.675H2.9998C2.6248 21.675 2.3623 21.375 2.3623 21ZM20.9998 21.675H13.0123V12.8625H21.6373V21C21.6748 21.375 21.3748 21.675 20.9998 21.675Z" fill="white"/>
<path d="M15.7497 9.71265H19.2747C19.9497 9.71265 20.5122 9.15015 20.5122 8.47515V4.95015C20.5122 4.27515 19.9497 3.71265 19.2747 3.71265H15.7497C15.0747 3.71265 14.5122 4.27515 14.5122 4.95015V8.47515C14.5497 9.18765 15.0747 9.71265 15.7497 9.71265ZM16.2372 5.47515H18.8247V8.06265H16.2372V5.47515Z" fill="white"/>
<path d="M4.9498 8.4751C5.0998 8.6251 5.3248 8.7376 5.5498 8.7376C5.7748 8.7376 5.9998 8.6626 6.1498 8.4751L6.6748 7.9501L7.1998 8.4751C7.3498 8.6251 7.5748 8.7376 7.7998 8.7376C8.0248 8.7376 8.2498 8.6626 8.3998 8.4751C8.7373 8.1376 8.7373 7.6126 8.3998 7.2751L7.8373 6.7501L8.3623 6.2251C8.6998 5.8876 8.6998 5.3626 8.3623 5.0251C8.0248 4.6876 7.4998 4.6876 7.1623 5.0251L6.6373 5.5501L6.1123 5.0251C5.7748 4.6876 5.2498 4.6876 4.9123 5.0251C4.5748 5.3626 4.5748 5.8876 4.9123 6.2251L5.4373 6.7501L4.9123 7.2751C4.6123 7.6126 4.6123 8.1376 4.9498 8.4751Z" fill="white"/>
<path d="M6.6749 14.175C5.0249 14.175 3.7124 15.525 3.7124 17.1375C3.7124 18.75 5.0624 20.1 6.6749 20.1C8.2874 20.1 9.6374 18.75 9.6374 17.1375C9.6374 15.525 8.2874 14.175 6.6749 14.175ZM6.6749 18.45C5.9624 18.45 5.3999 17.8875 5.3999 17.175C5.3999 16.4625 5.9624 15.9 6.6749 15.9C7.3874 15.9 7.9499 16.4625 7.9499 17.175C7.9499 17.8875 7.3874 18.45 6.6749 18.45Z" fill="white"/>
<path d="M18.8999 14.7001C18.5624 14.3251 18.1124 14.1001 17.6249 14.1001C17.1374 14.1001 16.6499 14.3251 16.3499 14.7001L14.0624 17.4001C13.6124 17.9251 13.5374 18.6001 13.7999 19.2001C14.0624 19.8001 14.6624 20.1751 15.3374 20.1751H19.9124C20.5874 20.1751 21.1874 19.8001 21.4499 19.2001C21.7124 18.6001 21.6374 17.8876 21.1874 17.4001L18.8999 14.7001ZM15.2999 18.4876L17.6249 15.7876L19.9124 18.4876H15.2999Z" fill="white"/>
</g>
<defs>
<clipPath id="clip0_17_3993">
<rect width="24" height="24" fill="white"/>
</clipPath>
</defs>
</svg>
