<svg width="24" height="16" viewBox="0 0 24 16" fill="none" xmlns="http://www.w3.org/2000/svg">
<g id="Group">
<path id="Vector" d="M8.33994 9.8C10.9274 9.8 12.9899 7.7 12.9899 5.15C12.9899 2.6 10.8899 0.5 8.33994 0.5C5.78994 0.5 3.68994 2.5625 3.68994 5.15C3.68994 7.7375 5.78994 9.8 8.33994 9.8ZM8.33994 2.15C9.98994 2.15 11.3024 3.5 11.3024 5.1125C11.3024 6.725 9.95244 8.075 8.33994 8.075C6.68994 8.075 5.37744 6.725 5.37744 5.1125C5.37744 3.5 6.68994 2.15 8.33994 2.15Z" fill="white"/>
<path id="Vector_2" d="M8.33995 10.9625C5.63995 10.9625 3.05245 12.05 1.06495 14.075C0.727454 14.4125 0.727454 14.9375 1.06495 15.275C1.21495 15.425 1.43995 15.5375 1.66495 15.5375C1.88995 15.5375 2.11495 15.4625 2.26495 15.275C3.91495 13.5875 6.08995 12.65 8.33995 12.65C10.5525 12.65 12.7275 13.5875 14.415 15.275C14.7525 15.6125 15.2775 15.6125 15.615 15.275C15.9525 14.9375 15.9525 14.4125 15.615 14.075C13.6275 12.0875 11.04 10.9625 8.33995 10.9625Z" fill="white"/>
<path id="Vector_3" d="M17.9025 9.79995C19.4025 9.79995 20.64 8.56245 20.64 7.06245C20.64 5.56245 19.4025 4.32495 17.9025 4.32495C16.4025 4.32495 15.165 5.56245 15.165 7.06245C15.1275 8.56245 16.365 9.79995 17.9025 9.79995ZM17.9025 5.97495C18.5025 5.97495 18.9525 6.46245 18.9525 7.02495C18.9525 7.62495 18.465 8.07495 17.9025 8.07495C17.34 8.07495 16.8525 7.58745 16.8525 7.02495C16.815 6.46245 17.3025 5.97495 17.9025 5.97495Z" fill="white"/>
<path id="Vector_4" d="M23.2275 13.1C21.24 11.2625 18.5025 10.5125 15.765 11.225C15.315 11.3375 15.0525 11.7875 15.165 12.2375C15.2775 12.6875 15.765 12.95 16.1775 12.8375C18.3525 12.275 20.5275 12.8375 22.065 14.3C22.215 14.45 22.44 14.525 22.6275 14.525C22.8525 14.525 23.0775 14.45 23.2275 14.2625C23.6025 13.9625 23.565 13.4375 23.2275 13.1Z" fill="white"/>
</g>
</svg>
