<svg width="21" height="20" viewBox="0 0 21 20" fill="none" xmlns="http://www.w3.org/2000/svg">
<g clip-path="url(#clip0_94_160)">
<path d="M17.0088 5.03125H10.915C9.04004 5.03125 7.50879 6.5625 7.50879 8.4375V8.59375C7.50879 10.4687 9.04004 12 10.915 12H11.415V10.625H10.915C9.82129 10.625 8.91504 9.71875 8.91504 8.625V8.4375C8.91504 7.34375 9.82129 6.4375 10.915 6.4375H17.0088C18.1025 6.4375 19.0088 7.34375 19.0088 8.4375V8.59375C19.0088 9.6875 18.1025 10.5937 17.0088 10.5937H14.5713V12H17.0088C18.8838 12 20.415 10.4687 20.415 8.59375V8.4375C20.4463 6.5625 18.915 5.03125 17.0088 5.03125Z" fill="white"/>
<path d="M10.415 7.96875H9.88379V9.375H10.415C11.5088 9.375 12.415 10.2813 12.415 11.375V11.5625C12.415 12.6562 11.5088 13.5625 10.415 13.5625H4.32129C3.22754 13.5625 2.32129 12.6562 2.32129 11.5625V11.4062C2.32129 10.3125 3.22754 9.40625 4.32129 9.40625H6.69629V8H4.32129C2.44629 8 0.915039 9.53125 0.915039 11.4062V11.5625C0.915039 13.4375 2.44629 14.9687 4.32129 14.9687H10.415C12.29 14.9687 13.8213 13.4375 13.8213 11.5625V11.4062C13.8213 9.5 12.29 7.96875 10.415 7.96875Z" fill="white"/>
</g>
<defs>
<clipPath id="clip0_94_160">
<rect width="20" height="20" fill="white" transform="translate(0.665039)"/>
</clipPath>
</defs>
</svg>
