<svg width="24" height="24" viewBox="0 0 24 24" fill="none" xmlns="http://www.w3.org/2000/svg">
<g id="plus" clip-path="url(#clip0_17_5797)">
<path id="Vector" d="M22.5002 11.1749H12.8627V1.49995C12.8627 1.04995 12.4877 0.637451 12.0002 0.637451C11.5502 0.637451 11.1377 1.01245 11.1377 1.49995V11.1749H1.5002C1.0502 11.1749 0.637695 11.5499 0.637695 12.0374C0.637695 12.4874 1.0127 12.9 1.5002 12.9H11.1752V22.4999C11.1752 22.9499 11.5502 23.3624 12.0377 23.3624C12.4877 23.3624 12.9002 22.9874 12.9002 22.4999V12.8624H22.5002C22.9502 12.8624 23.3627 12.4874 23.3627 12C23.3627 11.5499 22.9502 11.1749 22.5002 11.1749Z" fill="white"/>
</g>
<defs>
<clipPath id="clip0_17_5797">
<rect width="24" height="24" fill="white"/>
</clipPath>
</defs>
</svg>
