<svg width="17" height="16" viewBox="0 0 17 16" fill="none" xmlns="http://www.w3.org/2000/svg">
<g id="Send">
<path id="Vector" d="M15.5667 7.425C15.4667 7.25 15.3167 7.125 15.1417 7.025L3.61672 0.575001C3.41672 0.475001 3.19172 0.425001 2.96672 0.450001C2.74172 0.475001 2.54172 0.550001 2.36672 0.700001C2.19172 0.850001 2.06672 1.05 2.01672 1.25C1.94172 1.475 1.96672 1.7 2.04172 1.925L4.19172 8L2.04172 14.075C1.96672 14.3 1.96672 14.525 2.01672 14.725C2.06672 14.95 2.19172 15.125 2.36672 15.275C2.54172 15.425 2.74172 15.5 2.96672 15.525C2.99172 15.525 3.04172 15.525 3.06672 15.525C3.24172 15.525 3.44172 15.475 3.61672 15.375L15.1417 8.925C15.3167 8.825 15.4667 8.7 15.5667 8.525C15.6667 8.35 15.7167 8.15 15.7167 7.975C15.7167 7.8 15.6667 7.6 15.5667 7.425ZM3.11672 1.575L13.5667 7.425H5.19172L3.11672 1.575ZM3.11672 14.425L5.21672 8.575H13.5917L3.11672 14.425Z" fill="#9CA3AF"/>
</g>
</svg>
