<svg width="25" height="24" viewBox="0 0 25 24" fill="none" xmlns="http://www.w3.org/2000/svg">
<g clip-path="url(#clip0_30_1895)">
<path d="M8.34019 13.8C10.9277 13.8 12.9902 11.7 12.9902 9.15C12.9902 6.6 10.8902 4.5 8.34019 4.5C5.79019 4.5 3.69019 6.5625 3.69019 9.15C3.69019 11.7375 5.79019 13.8 8.34019 13.8ZM8.34019 6.15C9.99019 6.15 11.3027 7.5 11.3027 9.1125C11.3027 10.725 9.95269 12.075 8.34019 12.075C6.69019 12.075 5.37769 10.725 5.37769 9.1125C5.37769 7.5 6.69019 6.15 8.34019 6.15Z" fill="white"/>
<path d="M8.34014 14.9624C5.64014 14.9624 3.05264 16.0499 1.06514 18.0749C0.727637 18.4124 0.727637 18.9374 1.06514 19.2749C1.21514 19.4249 1.44014 19.5374 1.66514 19.5374C1.89014 19.5374 2.11514 19.4624 2.26514 19.2749C3.91514 17.5874 6.09014 16.6499 8.34014 16.6499C10.5526 16.6499 12.7276 17.5874 14.4151 19.2749C14.7526 19.6124 15.2776 19.6124 15.6151 19.2749C15.9526 18.9374 15.9526 18.4124 15.6151 18.0749C13.6276 16.0874 11.0401 14.9624 8.34014 14.9624Z" fill="white"/>
<path d="M17.9026 13.8002C19.4026 13.8002 20.6401 12.5627 20.6401 11.0627C20.6401 9.5627 19.4026 8.3252 17.9026 8.3252C16.4026 8.3252 15.1651 9.5627 15.1651 11.0627C15.1276 12.5627 16.3651 13.8002 17.9026 13.8002ZM17.9026 9.9752C18.5026 9.9752 18.9526 10.4627 18.9526 11.0252C18.9526 11.6252 18.4651 12.0752 17.9026 12.0752C17.3401 12.0752 16.8526 11.5877 16.8526 11.0252C16.8151 10.4627 17.3026 9.9752 17.9026 9.9752Z" fill="white"/>
<path d="M23.2276 17.1C21.2401 15.2625 18.5026 14.5125 15.7651 15.225C15.3151 15.3375 15.0526 15.7875 15.1651 16.2375C15.2776 16.6875 15.7651 16.95 16.1776 16.8375C18.3526 16.275 20.5276 16.8375 22.0651 18.3C22.2151 18.45 22.4401 18.525 22.6276 18.525C22.8526 18.525 23.0776 18.45 23.2276 18.2625C23.6026 17.9625 23.5651 17.4375 23.2276 17.1Z" fill="white"/>
</g>
<defs>
<clipPath id="clip0_30_1895">
<rect width="24" height="24" fill="white" transform="translate(0.165039)"/>
</clipPath>
</defs>
</svg>
